{"title":"London Spy S01E01 x264 RB58.mp4","uid":12731218,"size":681129140,"categoryP":"video","categoryS":"tv_shows","magnet":"?xt=urn:btih:f7ee1714e583aeab1dfeace4fd19f6ece2c5dcec&amp;dn=London+Spy+S01E01+x264+RB58.mp4&amp;tr=udp%3A%2F%2Ftracker.leechers-paradise.org%3A6969&amp;tr=udp%3A%2F%2Fzer0day.ch%3A1337&amp;tr=udp%3A%2F%2Fopen.demonii.com%3A1337&amp;tr=udp%3A%2F%2Ftracker.coppersurfer.tk%3A6969&amp;tr=udp%3A%2F%2Fexodus.desync.com%3A6969","seeders":1,"leechers":0,"uploader":"RedBaron58","files":1,"time":1447118897,"description":"London Spy S01E01 x264 mp4\r\n \nhttp://www.imdb.com/title/tt4108134/\r\n\r\nTrailer:\r\n\r\n\r\nPlease be patient My intial upload speed is limited.\r\nThank you for your kind comments and feedback on my other torrents, your feedback is welcome.\r\n\r\n\r\nAbout the Episode:\r\nMI6 agent Alex starts a relationship with ordinary guy Danny and the romance promises happiness for \r\nboth of them, but tragedy strikes when the spy dies in suspicious circumstances, forcing his lover \r\nto pursue the dangerous truth behind his death. \r\nOut of his depth in the world of espionage, Danny seeks help from his wise mentor Scottie, embarking \r\non a journey where no one is who they seem.\r\nContains gay love making scenes.\r\n  \r\nStarring Ben Whishaw, Edward Holcroft, Jim Broadbent and Samantha Spiro\r\n\r\n\r\nI hope you enjoy.\r\n\r\n\r\nTechnical:\r\n\r\nGeneral\r\nComplete name                            : H:London Spy S01E01 x264 RB58.mp4\r\nFormat                                   : MPEG-4\r\nFormat profile                           : Base Media\r\nCodec ID                                 : isom\r\nFile size                                : 650 MiB\r\nDuration                                 : 59mn 42s\r\nOverall bit rate                         : 1 521 Kbps\r\nWriting application                      : Lavf54.63.104\r\n\r\nVideo\r\nID                                       : 1\r\nFormat                                   : AVC\r\nFormat/Info                              : Advanced Video Codec\r\nFormat profile                           :   \r\nFormat settings, CABAC                   : Yes\r\nFormat settings, ReFrames                : 4 frames\r\nCodec ID                                 : avc1\r\nCodec ID/Info                            : Advanced Video Coding\r\nDuration                                 : 59mn 42s\r\nBit rate                                 : 1 400 Kbps\r\nWidth                                    : 832 pixels\r\nHeight                                   : 468 pixels\r\nDisplay aspect ratio                     : 16:9\r\nFrame rate mode                          : Constant\r\nFrame rate                               : 25.000 fps\r\nColor space                              : YUV\r\nChroma subsampling                       : 4:2:0\r\nBit depth                                : 8 bits\r\nScan type                                : Progressive\r\nBits/(Pixel*Frame)                       : 0.144\r\nStream size                              : 598 MiB (92%)\r\nWriting library                          : x264 core 123 r2189 35cf912\r\nEncoding settings                        : cabac=1 / ref=3 / deblock=1:0:0\r\n\r\nAudio\r\nID                                       : 2\r\nFormat                                   : AAC\r\nFormat/Info                              : Advanced Audio Codec\r\nFormat profile                           : LC\r\nCodec ID                                 : 40\r\nDuration                                 : 59mn 42s\r\nBit rate mode                            : Constant\r\nBit rate                                 : 112 Kbps\r\nChannel(s)                               : 2 channels\r\nChannel positions                        : Front: L R\r\nSampling rate                            : 48.0 KHz\r\nCompression mode                         : Lossy\r\nStream size                              : 47.8 MiB (7%)","torrent":{"xt":"urn:btih:f7ee1714e583aeab1dfeace4fd19f6ece2c5dcec","amp;dn":"London+Spy+S01E01+x264+RB58.mp4","amp;tr":["udp%3A%2F%2Ftracker.leechers-paradise.org%3A6969","udp%3A%2F%2Fzer0day.ch%3A1337","udp%3A%2F%2Fopen.demonii.com%3A1337","udp%3A%2F%2Ftracker.coppersurfer.tk%3A6969","udp%3A%2F%2Fexodus.desync.com%3A6969"],"infoHash":"f7ee1714e583aeab1dfeace4fd19f6ece2c5dcec","infoHashBuffer":{"type":"Buffer","data":[247,238,23,20,229,131,174,171,29,254,172,228,253,25,246,236,226,197,220,236]},"announce":[],"urlList":[]}}